<svg width="30" height="31" viewBox="0 0 30 31" fill="none" xmlns="http://www.w3.org/2000/svg">
<g clip-path="url(#clip0_99_131)">
<path d="M7.24082 16.1597L21.1167 29.9972C21.5713 30.4503 22.3074 30.4495 22.7612 29.9948C23.2148 29.5402 23.2136 28.8037 22.7589 28.3503L9.70895 15.3364L22.7594 2.32252C23.214 1.86901 23.2152 1.13301 22.7617 0.678326C22.5342 0.450397 22.2361 0.336432 21.9381 0.336432C21.6408 0.336432 21.3439 0.449635 21.1168 0.675982L7.24082 14.5131C7.02185 14.731 6.89898 15.0275 6.89898 15.3364C6.89898 15.6453 7.02221 15.9414 7.24082 16.1597Z" fill="#212121"/>
</g>
<defs>
<clipPath id="clip0_99_131">
<rect width="30" height="30" fill="white" transform="matrix(-1 0 0 -1 30 30.3364)"/>
</clipPath>
</defs>
</svg>
