<svg width="54" height="54" viewBox="0 0 54 54" fill="none" xmlns="http://www.w3.org/2000/svg">
<g clip-path="url(#clip0_99_58)">
<path d="M53.8341 16.9449C44.4866 4.95943 44.8853 5.2597 44.3862 5.21077L29.7541 3.23988C26.0657 2.74302 23.5603 3.3888 22.2809 3.5045C21.8516 3.5623 21.5505 3.95727 21.6081 4.38664C21.6659 4.816 22.0614 5.11774 22.4903 5.05942C23.7878 4.94045 26.1147 4.33306 29.5446 4.7948L39.5926 6.14817C38.8406 6.30141 27.7523 8.56097 26.9998 8.71432L14.4073 6.14817L18.76 5.56187C19.1893 5.50407 19.4904 5.10909 19.4328 4.67973C19.375 4.25027 18.9791 3.94905 18.5506 4.00695L9.61428 5.21055C9.61302 5.21066 9.61175 5.21087 9.61049 5.21108L9.59867 5.21266C9.58665 5.21435 9.57494 5.21699 9.56302 5.2192C9.55533 5.22068 9.54742 5.22173 9.53982 5.22342C9.53339 5.22479 9.52695 5.22616 9.52063 5.22764C9.51166 5.22986 9.5028 5.23249 9.49394 5.23492C9.48023 5.23871 9.46652 5.24241 9.45302 5.24694C9.44743 5.24884 9.44216 5.25116 9.43657 5.25316C9.43414 5.25401 9.43172 5.25496 9.4294 5.25591C9.42159 5.25886 9.41347 5.2616 9.40577 5.26466C9.39164 5.27046 9.37793 5.27689 9.36422 5.28354C9.35821 5.28639 9.3523 5.28902 9.34639 5.29198C9.33975 5.29535 9.33331 5.29862 9.32688 5.3021C9.32066 5.30548 9.31475 5.30927 9.30853 5.31296C8.96787 5.51146 9.13419 5.52548 0.165902 16.9448C-0.0205661 17.184 -0.0526284 17.5091 0.0838476 17.7801C0.39962 18.4065 -0.440224 17.1699 16.8723 40.1501C17.1332 40.496 17.6251 40.5648 17.9711 40.3039C18.3169 40.043 18.3857 39.551 18.1248 39.2051L2.91852 19.0505L15.2058 22.9208C15.5005 23.698 24.5006 47.4365 24.6676 47.8769L20.3378 42.1383C20.0768 41.7924 19.585 41.7236 19.239 41.9845C18.8931 42.2454 18.8244 42.7374 19.0852 43.0833C23.619 49.0911 24.0861 49.7137 24.1184 49.75C24.6912 50.3956 25.4834 50.8039 26.241 50.9317C26.3532 50.9508 27.6676 50.9504 27.7775 50.929C28.7328 50.7435 29.5398 50.2038 29.9207 49.7021L45.2341 29.4054C45.4949 29.0595 45.4262 28.5676 45.0803 28.3066C44.7342 28.0459 44.2426 28.1147 43.9816 28.4604L29.332 47.8774C29.8 46.6431 38.4501 23.8279 38.794 22.9209L51.0814 19.0506L46.1868 25.5378C45.926 25.8837 45.9946 26.3756 46.3406 26.6366C46.6866 26.8975 47.1784 26.8287 47.4393 26.4828C54.0102 17.7654 53.6562 18.2938 53.9155 17.7813C54.0526 17.5102 54.0209 17.1844 53.8341 16.9449ZM26.9999 10.705L36.4645 21.5024H17.5354L26.9999 10.705ZM2.01761 17.1218L9.45998 7.5779L14.5057 21.0556L2.01761 17.1218ZM10.9347 7.0417C12.4881 7.35821 23.6262 9.6281 25.5194 10.0139L16.0792 20.7834L10.9347 7.0417ZM27.0866 49.3745H26.9134L16.9409 23.0712H37.0591L27.0866 49.3745ZM37.9206 20.7833L28.4804 10.0139C29.7362 9.75793 41.134 7.4353 43.065 7.0417L37.9206 20.7833ZM39.4941 21.0554L44.5398 7.57769L51.9823 17.1217L39.4941 21.0554Z" fill="#212121"/>
</g>
<defs>
<clipPath id="clip0_99_58">
<rect width="54" height="54" fill="white"/>
</clipPath>
</defs>
</svg>
