<svg width="285" height="109" viewBox="0 0 285 109" fill="none" xmlns="http://www.w3.org/2000/svg">
<g filter="url(#filter0_d_100_7)">
<path d="M145.384 61.3402C133.035 75.842 114.065 79.9685 103.012 70.557C91.9597 61.1454 93.0108 41.7597 105.36 27.2579C117.709 12.7561 136.679 8.62958 147.731 18.0411C158.784 27.4527 157.733 46.8383 145.384 61.3402Z" fill="#ECD8BD"/>
<path d="M37.54 36.07L37.39 43.3H42.13L42.37 41.14C42.93 41.14 43.53 41.31 44.17 41.65V47.35L43.12 47.44C42.82 46.58 42.62 45.86 42.52 45.28H37.39C37.35 47.02 37.31 49.59 37.27 52.99H44.14L44.86 50.17L46.6 50.29C46.88 51.43 47.02 52.44 47.02 53.32C47.02 54.18 47 54.74 46.96 55H32.38L32.29 53.95C33.17 53.63 34.02 53.4 34.84 53.26C34.72 45.46 34.62 39.66 34.54 35.86C34.1 35.82 33.22 35.58 31.9 35.14L32.05 34H46.51C46.55 34.26 46.57 34.66 46.57 35.2C46.57 36.3 46.43 37.49 46.15 38.77C45.71 38.87 45.13 38.92 44.41 38.92L43.69 36.07H37.54ZM53.3718 32.71C53.9918 32.71 54.4318 32.73 54.6918 32.77C54.6918 33.47 54.5618 34.27 54.3018 35.17C54.1218 46.97 54.0318 52.9 54.0318 52.96L56.5518 53.2C56.5518 53.76 56.3818 54.36 56.0418 55H49.1418L49.0518 53.95C49.9718 53.63 50.8718 53.39 51.7518 53.23L51.4518 35.08C50.3518 35.02 49.4718 34.9 48.8118 34.72L48.9318 33.16C49.9518 32.86 51.4318 32.71 53.3718 32.71ZM62.9695 36.91C62.4495 37.03 61.9395 37.09 61.4395 37.09C60.9595 37.09 60.4795 37.06 59.9995 37C59.8795 36.44 59.8195 35.88 59.8195 35.32C59.8195 34.74 59.8395 34.31 59.8795 34.03C60.3195 33.93 60.7795 33.88 61.2595 33.88C61.7595 33.88 62.2895 33.9 62.8495 33.94C62.9695 34.46 63.0295 34.97 63.0295 35.47C63.0295 35.95 63.0095 36.43 62.9695 36.91ZM57.5095 40.06C59.2095 39.76 60.5295 39.61 61.4695 39.61C62.4095 39.61 63.0095 39.63 63.2695 39.67C63.2695 40.15 63.2095 40.68 63.0895 41.26C62.9695 41.84 62.8995 42.12 62.8795 42.1L62.6095 52.96L65.1295 53.2C65.1295 53.76 64.9595 54.36 64.6195 55H57.7195L57.6295 53.95C58.5495 53.63 59.4495 53.39 60.3295 53.23C60.2095 48.23 60.1095 44.48 60.0295 41.98C58.8695 41.98 57.9895 41.86 57.3895 41.62L57.5095 40.06ZM68.418 53.14L68.178 41.83H65.868L65.778 40.78C65.978 40.64 66.558 40.38 67.518 40L69.978 36.16C70.378 36.2 70.688 36.3 70.908 36.46L70.878 39.76C72.378 39.76 73.608 39.86 74.568 40.06C74.568 40.6 74.398 41.19 74.058 41.83H70.818C70.778 44.23 70.738 47.87 70.698 52.75C71.818 52.81 72.938 53.01 74.058 53.35L74.028 54.4C73.748 54.58 73.028 54.79 71.868 55.03C70.728 55.27 69.788 55.39 69.048 55.39C68.948 55.23 68.818 54.89 68.658 54.37C68.498 53.83 68.418 53.42 68.418 53.14ZM83.6477 53.32C84.5277 53.32 85.9077 52.9 87.7877 52.06C88.1677 52.58 88.3677 53.04 88.3877 53.44C87.3677 54.04 86.3677 54.51 85.3877 54.85C84.4077 55.19 83.7077 55.36 83.2877 55.36C80.9677 55.36 79.1977 54.67 77.9777 53.29C76.7577 51.89 76.1477 49.94 76.1477 47.44C76.1477 44.94 76.7377 42.98 77.9177 41.56C79.1177 40.12 80.9077 39.4 83.2877 39.4C85.1277 39.4 86.5277 40.06 87.4877 41.38C88.4677 42.7 88.9577 44.47 88.9577 46.69C88.7977 46.97 88.6677 47.16 88.5677 47.26L78.9077 47.11C78.9277 49.13 79.2777 50.67 79.9577 51.73C80.6577 52.79 81.8877 53.32 83.6477 53.32ZM86.2277 45.4C86.2277 44.08 85.9877 43.06 85.5077 42.34C85.0277 41.6 84.2277 41.23 83.1077 41.23C81.9877 41.23 80.9877 41.44 80.1077 41.86C79.5077 43.06 79.1277 44.29 78.9677 45.55C80.5477 45.53 82.9677 45.48 86.2277 45.4Z" fill="white"/>
<path d="M103.432 37.72L103.132 52.96L105.652 53.2C105.652 53.76 105.482 54.36 105.142 55H98.2422L98.1522 53.95C99.2322 53.59 100.152 53.35 100.912 53.23C100.872 51.93 100.802 49.25 100.702 45.19C100.622 41.13 100.552 37.99 100.492 35.77C99.7322 35.65 98.8322 35.41 97.7922 35.05L97.8822 34H103.822L114.772 51.49L114.262 35.77C113.522 35.63 112.632 35.39 111.592 35.05L111.682 34H119.182C119.522 34.64 119.692 35.24 119.692 35.8C118.692 35.88 117.892 35.92 117.292 35.92L116.992 55H114.082L103.432 37.72ZM132.987 45.19L132.837 52.93C133.697 52.99 134.557 53.13 135.417 53.35L135.357 54.4C135.037 54.56 134.457 54.74 133.617 54.94C132.797 55.12 131.987 55.21 131.187 55.21C130.827 54.49 130.627 53.8 130.587 53.14C128.307 54.64 126.707 55.39 125.787 55.39C124.367 55.39 123.227 55.01 122.367 54.25C121.507 53.49 121.077 52.43 121.077 51.07C121.077 47.93 122.997 46.31 126.837 46.21C129.077 46.15 130.207 46.12 130.227 46.12L130.197 45.1C130.157 43.72 129.897 42.73 129.417 42.13C128.937 41.51 128.077 41.2 126.837 41.2C126.317 41.2 125.757 41.32 125.157 41.56L124.437 44.56C124.337 44.58 124.167 44.59 123.927 44.59L122.697 44.5C122.377 43.64 122.207 42.45 122.187 40.93C122.567 40.73 123.437 40.43 124.797 40.03C126.157 39.61 127.027 39.4 127.407 39.4C129.447 39.4 130.887 39.85 131.727 40.75C132.567 41.65 132.987 43.13 132.987 45.19ZM126.447 53.35C127.027 53.35 128.367 52.7 130.467 51.4L130.317 47.65C128.957 47.77 127.817 47.88 126.897 47.98C125.977 48.08 125.237 48.35 124.677 48.79C124.117 49.21 123.837 49.88 123.837 50.8C123.837 52.5 124.707 53.35 126.447 53.35ZM141.899 36.91C141.379 37.03 140.869 37.09 140.369 37.09C139.889 37.09 139.409 37.06 138.929 37C138.809 36.44 138.749 35.88 138.749 35.32C138.749 34.74 138.769 34.31 138.809 34.03C139.249 33.93 139.709 33.88 140.189 33.88C140.689 33.88 141.219 33.9 141.779 33.94C141.899 34.46 141.959 34.97 141.959 35.47C141.959 35.95 141.939 36.43 141.899 36.91ZM136.439 40.06C138.139 39.76 139.459 39.61 140.399 39.61C141.339 39.61 141.939 39.63 142.199 39.67C142.199 40.15 142.139 40.68 142.019 41.26C141.899 41.84 141.829 42.12 141.809 42.1L141.539 52.96L144.059 53.2C144.059 53.76 143.889 54.36 143.549 55H136.649L136.559 53.95C137.479 53.63 138.379 53.39 139.259 53.23C139.139 48.23 139.039 44.48 138.959 41.98C137.799 41.98 136.919 41.86 136.319 41.62L136.439 40.06ZM149.177 32.71C149.797 32.71 150.237 32.73 150.497 32.77C150.497 33.47 150.367 34.27 150.107 35.17C149.927 46.97 149.837 52.9 149.837 52.96L152.357 53.2C152.357 53.76 152.187 54.36 151.847 55H144.947L144.857 53.95C145.777 53.63 146.677 53.39 147.557 53.23L147.257 35.08C146.157 35.02 145.277 34.9 144.617 34.72L144.737 33.16C145.757 32.86 147.237 32.71 149.177 32.71Z" fill="#212121"/>
<path d="M168.068 52.99C171.048 52.99 172.538 51.78 172.538 49.36C172.538 48.18 171.808 47.18 170.348 46.36C169.688 45.98 168.958 45.62 168.158 45.28C167.378 44.94 166.588 44.57 165.788 44.17C164.988 43.77 164.258 43.34 163.598 42.88C162.958 42.42 162.428 41.84 162.008 41.14C161.608 40.44 161.408 39.65 161.408 38.77C161.408 37.33 161.988 36.11 163.148 35.11C164.328 34.09 165.938 33.58 167.978 33.58C170.018 33.58 172.168 34.2 174.428 35.44C174.428 36.58 174.288 38.01 174.008 39.73C173.568 39.79 172.988 39.82 172.268 39.82L171.368 36.34C171.128 36.22 170.648 36.1 169.928 35.98C169.228 35.86 168.608 35.8 168.068 35.8C166.908 35.8 166.008 36.05 165.368 36.55C164.728 37.03 164.408 37.71 164.408 38.59C164.408 39.45 164.778 40.23 165.518 40.93C166.278 41.61 167.188 42.2 168.248 42.7C169.328 43.18 170.398 43.68 171.458 44.2C172.538 44.72 173.448 45.4 174.188 46.24C174.948 47.06 175.328 48.02 175.328 49.12C175.328 51.12 174.658 52.67 173.318 53.77C171.978 54.85 170.228 55.39 168.068 55.39C166.888 55.39 165.608 55.21 164.228 54.85C162.868 54.47 161.738 53.99 160.838 53.41C160.878 52.07 161.028 50.52 161.288 48.76C161.728 48.7 162.308 48.67 163.028 48.67L163.658 52.27C164.098 52.45 164.758 52.62 165.638 52.78C166.538 52.92 167.348 52.99 168.068 52.99ZM179.385 53.14L179.145 41.83H176.835L176.745 40.78C176.945 40.64 177.525 40.38 178.485 40L180.945 36.16C181.345 36.2 181.655 36.3 181.875 36.46L181.845 39.76C183.345 39.76 184.575 39.86 185.535 40.06C185.535 40.6 185.365 41.19 185.025 41.83H181.785C181.745 44.23 181.705 47.87 181.665 52.75C182.785 52.81 183.905 53.01 185.025 53.35L184.995 54.4C184.715 54.58 183.995 54.79 182.835 55.03C181.695 55.27 180.755 55.39 180.015 55.39C179.915 55.23 179.785 54.89 179.625 54.37C179.465 53.83 179.385 53.42 179.385 53.14ZM194.735 53.02C195.315 53.02 195.965 52.9 196.685 52.66C197.405 52.4 197.995 52.09 198.455 51.73C198.375 47.47 198.305 44.24 198.245 42.04C197.005 42.04 196.085 41.92 195.485 41.68L195.605 40.12C197.305 39.82 198.635 39.67 199.595 39.67C200.575 39.67 201.195 39.69 201.455 39.73C201.455 40.09 201.395 40.57 201.275 41.17C201.175 41.77 201.105 42.1 201.065 42.16L200.705 52.87C201.765 52.93 202.625 53.05 203.285 53.23L203.225 54.76C202.345 55.04 201.495 55.18 200.675 55.18C199.855 55.18 199.355 55.17 199.175 55.15C198.795 54.39 198.575 53.69 198.515 53.05C197.535 53.79 196.625 54.36 195.785 54.76C194.965 55.16 194.425 55.36 194.165 55.36C192.405 55.36 191.125 54.89 190.325 53.95C189.545 52.99 189.155 51.59 189.155 49.75C189.155 49.73 189.245 47.17 189.425 42.07C188.265 42.07 187.195 41.94 186.215 41.68L186.335 40.12C188.035 39.82 189.355 39.67 190.295 39.67C191.235 39.67 191.835 39.69 192.095 39.73C192.095 40.21 192.035 40.74 191.915 41.32C191.795 41.9 191.725 42.18 191.705 42.16L191.735 48.64C191.735 50.16 191.925 51.27 192.305 51.97C192.685 52.67 193.495 53.02 194.735 53.02ZM214.557 41.11L214.467 35.11C213.367 35.05 212.487 34.93 211.827 34.75L211.947 33.19C212.967 32.89 214.447 32.74 216.387 32.74C217.007 32.74 217.447 32.76 217.707 32.8C217.707 33.16 217.647 33.64 217.527 34.24C217.427 34.82 217.357 35.14 217.317 35.2L217.047 52.93C217.867 52.97 218.737 53.11 219.657 53.35L219.597 54.4C218.217 55.04 216.997 55.36 215.937 55.36C215.717 55.36 215.547 55.35 215.427 55.33C215.267 55.03 215.067 54.34 214.827 53.26C212.527 54.56 210.917 55.26 209.997 55.36C208.077 55.36 206.637 54.63 205.677 53.17C204.717 51.71 204.237 49.84 204.237 47.56C204.237 45.26 204.717 43.33 205.677 41.77C206.657 40.19 208.097 39.4 209.997 39.4C211.477 39.4 212.997 39.97 214.557 41.11ZM210.507 41.44C208.167 41.44 206.997 43.36 206.997 47.2C206.997 48.7 207.237 50 207.717 51.1C207.957 51.7 208.307 52.18 208.767 52.54C209.247 52.9 209.797 53.08 210.417 53.08C211.037 53.08 211.757 52.94 212.577 52.66C213.417 52.38 214.137 52.06 214.737 51.7L214.557 43.15C214.017 42.69 213.357 42.29 212.577 41.95C211.797 41.61 211.107 41.44 210.507 41.44ZM226 36.91C225.48 37.03 224.97 37.09 224.47 37.09C223.99 37.09 223.51 37.06 223.03 37C222.91 36.44 222.85 35.88 222.85 35.32C222.85 34.74 222.87 34.31 222.91 34.03C223.35 33.93 223.81 33.88 224.29 33.88C224.79 33.88 225.32 33.9 225.88 33.94C226 34.46 226.06 34.97 226.06 35.47C226.06 35.95 226.04 36.43 226 36.91ZM220.54 40.06C222.24 39.76 223.56 39.61 224.5 39.61C225.44 39.61 226.04 39.63 226.3 39.67C226.3 40.15 226.24 40.68 226.12 41.26C226 41.84 225.93 42.12 225.91 42.1L225.64 52.96L228.16 53.2C228.16 53.76 227.99 54.36 227.65 55H220.75L220.66 53.95C221.58 53.63 222.48 53.39 223.36 53.23C223.24 48.23 223.14 44.48 223.06 41.98C221.9 41.98 221.02 41.86 220.42 41.62L220.54 40.06ZM236.158 53.56C237.838 53.56 238.968 53.04 239.548 52C240.148 50.94 240.448 49.44 240.448 47.5C240.448 44.42 239.768 42.49 238.408 41.71C237.848 41.39 237.058 41.23 236.038 41.23C235.038 41.23 234.088 41.44 233.188 41.86C232.388 43.4 231.988 45.19 231.988 47.23C231.988 49.19 232.248 50.7 232.768 51.76C233.368 52.96 234.498 53.56 236.158 53.56ZM229.228 47.5C229.228 44.96 229.808 42.98 230.968 41.56C232.128 40.12 233.918 39.4 236.338 39.4C238.758 39.4 240.508 40.06 241.588 41.38C242.668 42.68 243.208 44.61 243.208 47.17C243.208 49.73 242.628 51.74 241.468 53.2C240.328 54.66 238.588 55.39 236.248 55.39C233.908 55.39 232.148 54.71 230.968 53.35C229.808 51.99 229.228 50.04 229.228 47.5Z" fill="#F5F5F5"/>
</g>
<defs>
<filter id="filter0_d_100_7" x="-4" y="-20" width="293" height="137" filterUnits="userSpaceOnUse" color-interpolation-filters="sRGB">
<feFlood flood-opacity="0" result="BackgroundImageFix"/>
<feColorMatrix in="SourceAlpha" type="matrix" values="0 0 0 0 0 0 0 0 0 0 0 0 0 0 0 0 0 0 127 0" result="hardAlpha"/>
<feOffset dy="4"/>
<feGaussianBlur stdDeviation="2"/>
<feComposite in2="hardAlpha" operator="out"/>
<feColorMatrix type="matrix" values="0 0 0 0 0 0 0 0 0 0 0 0 0 0 0 0 0 0 0.25 0"/>
<feBlend mode="normal" in2="BackgroundImageFix" result="effect1_dropShadow_100_7"/>
<feBlend mode="normal" in="SourceGraphic" in2="effect1_dropShadow_100_7" result="shape"/>
</filter>
</defs>
</svg>
