<svg width="720" height="147" viewBox="0 0 720 147" fill="none" xmlns="http://www.w3.org/2000/svg">
<path d="M19.35 4C25.2767 4 29.6633 4.98 32.51 6.94C35.4033 8.85333 36.85 12.26 36.85 17.16C36.85 22.06 35.4267 25.9567 32.58 28.85C29.7333 31.6967 25.1367 33.12 18.79 33.12H12.91L12.7 48.31L18.16 48.8C18.16 50.1067 17.7633 51.5067 16.97 53H1.22L1.01 50.62C2.97 49.8733 4.97667 49.3133 7.03 48.94C6.75 30.74 6.51667 17.2067 6.33 8.34C5.07 8.10667 3.01667 7.54666 0.17 6.66L0.52 4H19.35ZM18.09 28.57C22.1033 28.5233 25.16 27.52 27.26 25.56C29.36 23.5533 30.41 20.9167 30.41 17.65C30.41 14.3833 29.3833 12.12 27.33 10.86C25.2767 9.55333 21.9867 8.9 17.46 8.9C16.62 8.9 15.1967 8.92333 13.19 8.97C13.19 9.01667 13.12 15.5733 12.98 28.64L18.09 28.57ZM62.2737 22.48C62.0403 22.2467 61.527 22.13 60.7337 22.13C59.9403 22.13 58.7503 22.41 57.1637 22.97C55.6237 23.53 54.2237 24.1833 52.9637 24.93C52.6837 35.29 52.497 43.06 52.4037 48.24L58.2837 48.8C58.2837 50.1067 57.887 51.5067 57.0937 53H40.9937L40.7837 50.55C42.9303 49.8033 45.0303 49.2433 47.0837 48.87C46.8037 37.0167 46.5703 28.2433 46.3837 22.55C43.817 22.41 41.7637 22.13 40.2237 21.71L40.5037 18.07C42.977 17.37 46.6403 17.02 51.4937 17.02C52.2403 18.1867 52.707 19.68 52.8937 21.5C58.2603 18.2333 61.457 16.6 62.4837 16.6C63.5103 16.6 64.7003 16.81 66.0537 17.23C67.407 17.6033 68.4103 18.0233 69.0637 18.49C69.0637 23.1567 68.6203 26.96 67.7337 29.9C67.0803 30.0867 66.3103 30.18 65.4237 30.18C64.5837 30.18 64.0003 30.1567 63.6737 30.11L62.2737 22.48ZM88.399 49.64C92.319 49.64 94.9557 48.4267 96.309 46C97.709 43.5267 98.409 40.0267 98.409 35.5C98.409 28.3133 96.8223 23.81 93.649 21.99C92.3423 21.2433 90.499 20.87 88.119 20.87C85.7857 20.87 83.569 21.36 81.469 22.34C79.6023 25.9333 78.669 30.11 78.669 34.87C78.669 39.4433 79.2757 42.9667 80.489 45.44C81.889 48.24 84.5257 49.64 88.399 49.64ZM72.229 35.5C72.229 29.5733 73.5823 24.9533 76.289 21.64C78.9957 18.28 83.1723 16.6 88.819 16.6C94.4657 16.6 98.549 18.14 101.069 21.22C103.589 24.2533 104.849 28.7567 104.849 34.73C104.849 40.7033 103.496 45.3933 100.789 48.8C98.129 52.2067 94.069 53.91 88.609 53.91C83.149 53.91 79.0423 52.3233 76.289 49.15C73.5823 45.9767 72.229 41.4267 72.229 35.5ZM133.275 11.91L132.155 11.84H131.875L129.705 4.98C128.678 4.79333 127.768 4.7 126.975 4.7C124.688 4.7 123.078 5.58666 122.145 7.36C121.258 9.13333 120.815 12.2367 120.815 16.67V17.51H121.865C125.085 17.51 127.558 17.6967 129.285 18.07C129.332 18.07 129.425 18.0933 129.565 18.14C129.518 19.4933 129.122 20.87 128.375 22.27H120.395V48.24H121.445C123.265 48.24 124.875 48.3333 126.275 48.52C127.675 48.7067 128.422 48.8467 128.515 48.94C128.515 50.1533 128.118 51.5067 127.325 53H108.985L108.775 50.55C110.922 49.8033 112.882 49.2433 114.655 48.87V22.27H109.265L109.055 19.82C110.735 19.1667 112.602 18.6533 114.655 18.28V15.41C114.655 10.1367 115.635 6.28666 117.595 3.86C118.388 2.92666 119.508 2.15666 120.955 1.55C122.402 0.896666 124.082 0.569999 125.995 0.569999C129.728 0.569999 133.275 1.38666 136.635 3.02C136.635 5.91333 136.355 8.80667 135.795 11.7C135.282 11.84 134.442 11.91 133.275 11.91ZM153.446 49.08C155.5 49.08 158.72 48.1 163.106 46.14C163.993 47.3533 164.46 48.4267 164.506 49.36C162.126 50.76 159.793 51.8567 157.506 52.65C155.22 53.4433 153.586 53.84 152.606 53.84C147.193 53.84 143.063 52.23 140.216 49.01C137.37 45.7433 135.946 41.1933 135.946 35.36C135.946 29.5267 137.323 24.9533 140.076 21.64C142.876 18.28 147.053 16.6 152.606 16.6C156.9 16.6 160.166 18.14 162.406 21.22C164.693 24.3 165.836 28.43 165.836 33.61C165.463 34.2633 165.16 34.7067 164.926 34.94L142.386 34.59C142.433 39.3033 143.25 42.8967 144.836 45.37C146.47 47.8433 149.34 49.08 153.446 49.08ZM159.466 30.6C159.466 27.52 158.906 25.14 157.786 23.46C156.666 21.7333 154.8 20.87 152.186 20.87C149.573 20.87 147.24 21.36 145.186 22.34C143.786 25.14 142.9 28.01 142.526 30.95C146.213 30.9033 151.86 30.7867 159.466 30.6ZM177.297 48.52C178.93 49.22 180.913 49.57 183.247 49.57C185.627 49.57 187.493 49.1267 188.847 48.24C190.2 47.3533 190.877 46.14 190.877 44.6C190.877 43.06 190.247 41.7767 188.987 40.75C187.727 39.7233 186.187 38.8133 184.367 38.02C182.547 37.2267 180.727 36.3867 178.907 35.5C177.087 34.6133 175.547 33.4467 174.287 32C173.027 30.5533 172.397 28.8733 172.397 26.96C172.397 23.74 173.47 21.22 175.617 19.4C177.763 17.5333 180.727 16.6 184.507 16.6C188.333 16.6 191.927 17.4633 195.287 19.19C195.333 19.6567 195.357 20.9167 195.357 22.97C195.357 24.9767 195.147 26.7033 194.727 28.15C193.607 28.5233 192.277 28.71 190.737 28.71L188.427 21.57C187.4 21.0567 186 20.8 184.227 20.8C182.5 20.8 181.123 21.2667 180.097 22.2C179.07 23.0867 178.557 24.23 178.557 25.63C178.557 26.9833 179.187 28.1733 180.447 29.2C181.753 30.2267 183.317 31.16 185.137 32C186.957 32.7933 188.777 33.6567 190.597 34.59C192.417 35.4767 193.957 36.6667 195.217 38.16C196.523 39.6067 197.177 41.2867 197.177 43.2C197.177 46.56 195.87 49.1967 193.257 51.11C190.69 52.9767 187.517 53.91 183.737 53.91C181.683 53.91 179.49 53.5833 177.157 52.93C174.823 52.23 172.863 51.3433 171.277 50.27C171.277 47.1433 171.557 44.3667 172.117 41.94C173.19 41.7533 174.637 41.66 176.457 41.66L177.297 48.52ZM208.947 48.52C210.581 49.22 212.564 49.57 214.897 49.57C217.277 49.57 219.144 49.1267 220.497 48.24C221.851 47.3533 222.527 46.14 222.527 44.6C222.527 43.06 221.897 41.7767 220.637 40.75C219.377 39.7233 217.837 38.8133 216.017 38.02C214.197 37.2267 212.377 36.3867 210.557 35.5C208.737 34.6133 207.197 33.4467 205.937 32C204.677 30.5533 204.047 28.8733 204.047 26.96C204.047 23.74 205.121 21.22 207.267 19.4C209.414 17.5333 212.377 16.6 216.157 16.6C219.984 16.6 223.577 17.4633 226.937 19.19C226.984 19.6567 227.007 20.9167 227.007 22.97C227.007 24.9767 226.797 26.7033 226.377 28.15C225.257 28.5233 223.927 28.71 222.387 28.71L220.077 21.57C219.051 21.0567 217.651 20.8 215.877 20.8C214.151 20.8 212.774 21.2667 211.747 22.2C210.721 23.0867 210.207 24.23 210.207 25.63C210.207 26.9833 210.837 28.1733 212.097 29.2C213.404 30.2267 214.967 31.16 216.787 32C218.607 32.7933 220.427 33.6567 222.247 34.59C224.067 35.4767 225.607 36.6667 226.867 38.16C228.174 39.6067 228.827 41.2867 228.827 43.2C228.827 46.56 227.521 49.1967 224.907 51.11C222.341 52.9767 219.167 53.91 215.387 53.91C213.334 53.91 211.141 53.5833 208.807 52.93C206.474 52.23 204.514 51.3433 202.927 50.27C202.927 47.1433 203.207 44.3667 203.767 41.94C204.841 41.7533 206.287 41.66 208.107 41.66L208.947 48.52ZM247.388 10.79C246.174 11.07 244.984 11.21 243.818 11.21C242.698 11.21 241.578 11.14 240.458 11C240.178 9.69333 240.038 8.38667 240.038 7.08C240.038 5.72666 240.084 4.72333 240.178 4.07C241.204 3.83666 242.278 3.72 243.398 3.72C244.564 3.72 245.801 3.76666 247.108 3.86C247.388 5.07333 247.528 6.26333 247.528 7.43C247.528 8.55 247.481 9.67 247.388 10.79ZM234.648 18.14C238.614 17.44 241.694 17.09 243.888 17.09C246.081 17.09 247.481 17.1367 248.088 17.23C248.088 18.35 247.948 19.5867 247.668 20.94C247.388 22.2933 247.224 22.9467 247.178 22.9L246.548 48.24L252.428 48.8C252.428 50.1067 252.031 51.5067 251.238 53H235.138L234.928 50.55C237.074 49.8033 239.174 49.2433 241.228 48.87C240.948 37.2033 240.714 28.4533 240.528 22.62C237.821 22.62 235.768 22.34 234.368 21.78L234.648 18.14ZM272.491 49.64C276.411 49.64 279.047 48.4267 280.401 46C281.801 43.5267 282.501 40.0267 282.501 35.5C282.501 28.3133 280.914 23.81 277.741 21.99C276.434 21.2433 274.591 20.87 272.211 20.87C269.877 20.87 267.661 21.36 265.561 22.34C263.694 25.9333 262.761 30.11 262.761 34.87C262.761 39.4433 263.367 42.9667 264.581 45.44C265.981 48.24 268.617 49.64 272.491 49.64ZM256.321 35.5C256.321 29.5733 257.674 24.9533 260.381 21.64C263.087 18.28 267.264 16.6 272.911 16.6C278.557 16.6 282.641 18.14 285.161 21.22C287.681 24.2533 288.941 28.7567 288.941 34.73C288.941 40.7033 287.587 45.3933 284.881 48.8C282.221 52.2067 278.161 53.91 272.701 53.91C267.241 53.91 263.134 52.3233 260.381 49.15C257.674 45.9767 256.321 41.4267 256.321 35.5ZM315.827 16.6C320.307 16.6 323.55 17.72 325.557 19.96C327.563 22.1533 328.567 25.5133 328.567 30.04C328.567 31.3467 328.38 37.4133 328.007 48.24L333.887 48.8C333.887 50.1067 333.49 51.5067 332.697 53H316.597L316.387 50.55C318.533 49.8033 320.633 49.2433 322.687 48.87C322.407 36.6433 322.15 29.8533 321.917 28.5C321.73 27.1 321.403 25.8867 320.937 24.86C320.47 23.8333 319.77 23.11 318.837 22.69C317.903 22.27 316.667 22.06 315.127 22.06C312.047 22.06 309.06 22.8067 306.167 24.3C305.887 34.94 305.7 42.92 305.607 48.24L311.487 48.8C311.487 50.1067 311.09 51.5067 310.297 53H294.197L293.987 50.55C296.133 49.8033 298.233 49.2433 300.287 48.87C300.007 37.0167 299.773 28.2433 299.587 22.55C297.02 22.41 294.967 22.13 293.427 21.71L293.707 18.07C296.227 17.37 299.89 17.02 304.697 17.02C305.257 17.86 305.677 19.0733 305.957 20.66C307.963 19.5867 309.97 18.6533 311.977 17.86C314.03 17.02 315.313 16.6 315.827 16.6ZM365.262 30.11L364.912 48.17C366.918 48.31 368.925 48.6367 370.932 49.15L370.792 51.6C370.045 51.9733 368.692 52.3933 366.732 52.86C364.818 53.28 362.928 53.49 361.062 53.49C360.222 51.81 359.755 50.2 359.662 48.66C354.342 52.16 350.608 53.91 348.462 53.91C345.148 53.91 342.488 53.0233 340.482 51.25C338.475 49.4767 337.472 47.0033 337.472 43.83C337.472 36.5033 341.952 32.7233 350.912 32.49C356.138 32.35 358.775 32.28 358.822 32.28L358.752 29.9C358.658 26.68 358.052 24.37 356.932 22.97C355.812 21.5233 353.805 20.8 350.912 20.8C349.698 20.8 348.392 21.08 346.992 21.64L345.312 28.64C345.078 28.6867 344.682 28.71 344.122 28.71L341.252 28.5C340.505 26.4933 340.108 23.7167 340.062 20.17C340.948 19.7033 342.978 19.0033 346.152 18.07C349.325 17.09 351.355 16.6 352.242 16.6C357.002 16.6 360.362 17.65 362.322 19.75C364.282 21.85 365.262 25.3033 365.262 30.11ZM350.002 49.15C351.355 49.15 354.482 47.6333 359.382 44.6L359.032 35.85C355.858 36.13 353.198 36.3867 351.052 36.62C348.905 36.8533 347.178 37.4833 345.872 38.51C344.565 39.49 343.912 41.0533 343.912 43.2C343.912 47.1667 345.942 49.15 350.002 49.15ZM384.306 0.989998C385.753 0.989998 386.779 1.03666 387.386 1.13C387.386 2.76333 387.083 4.63 386.476 6.73C386.056 34.2633 385.846 48.1 385.846 48.24L391.726 48.8C391.726 50.1067 391.329 51.5067 390.536 53H374.436L374.226 50.55C376.373 49.8033 378.473 49.2433 380.526 48.87L379.826 6.52C377.259 6.38 375.206 6.1 373.666 5.68L373.946 2.04C376.326 1.34 379.779 0.989998 384.306 0.989998ZM441.474 27.45C444.181 27.7767 446.561 29.0367 448.614 31.23C450.714 33.4233 451.764 36.5033 451.764 40.47C451.764 44.39 450.201 47.47 447.074 49.71C443.994 51.9033 439.467 53 433.494 53H414.314L414.104 50.55C416.064 49.7567 418.071 49.1967 420.124 48.87C419.844 30.8567 419.611 17.3467 419.424 8.34C417.837 8.06 415.784 7.5 413.264 6.66C413.404 4.93333 413.521 4.04666 413.614 4H431.184C437.437 4 441.684 4.53666 443.924 5.61C444.997 6.12333 446.071 6.8 447.144 7.64C449.291 9.32 450.364 12.0967 450.364 15.97C450.364 17.93 450.014 19.7033 449.314 21.29C448.661 22.83 447.797 24.02 446.724 24.86C444.764 26.4 443.014 27.2633 441.474 27.45ZM433.844 30.46H426.074C425.981 34.4733 425.887 40.4 425.794 48.24H433.214C440.961 48.24 444.834 45.3467 444.834 39.56C444.834 36.2 443.924 33.8433 442.104 32.49C440.331 31.1367 437.577 30.46 433.844 30.46ZM430.484 8.9L426.284 8.97C426.191 13.2633 426.144 18.84 426.144 25.7H433.004C437.111 25.7 439.841 24.93 441.194 23.39C442.594 21.8033 443.294 19.3067 443.294 15.9C443.294 11.2333 439.024 8.9 430.484 8.9ZM475.556 49.08C477.609 49.08 480.829 48.1 485.216 46.14C486.103 47.3533 486.569 48.4267 486.616 49.36C484.236 50.76 481.903 51.8567 479.616 52.65C477.329 53.4433 475.696 53.84 474.716 53.84C469.303 53.84 465.173 52.23 462.326 49.01C459.479 45.7433 458.056 41.1933 458.056 35.36C458.056 29.5267 459.433 24.9533 462.186 21.64C464.986 18.28 469.163 16.6 474.716 16.6C479.009 16.6 482.276 18.14 484.516 21.22C486.803 24.3 487.946 28.43 487.946 33.61C487.573 34.2633 487.269 34.7067 487.036 34.94L464.496 34.59C464.543 39.3033 465.359 42.8967 466.946 45.37C468.579 47.8433 471.449 49.08 475.556 49.08ZM481.576 30.6C481.576 27.52 481.016 25.14 479.896 23.46C478.776 21.7333 476.909 20.87 474.296 20.87C471.683 20.87 469.349 21.36 467.296 22.34C465.896 25.14 465.009 28.01 464.636 30.95C468.323 30.9033 473.969 30.7867 481.576 30.6ZM521.736 30.11L521.386 48.17C523.393 48.31 525.4 48.6367 527.406 49.15L527.266 51.6C526.52 51.9733 525.166 52.3933 523.206 52.86C521.293 53.28 519.403 53.49 517.536 53.49C516.696 51.81 516.23 50.2 516.136 48.66C510.816 52.16 507.083 53.91 504.936 53.91C501.623 53.91 498.963 53.0233 496.956 51.25C494.95 49.4767 493.946 47.0033 493.946 43.83C493.946 36.5033 498.426 32.7233 507.386 32.49C512.613 32.35 515.25 32.28 515.296 32.28L515.226 29.9C515.133 26.68 514.526 24.37 513.406 22.97C512.286 21.5233 510.28 20.8 507.386 20.8C506.173 20.8 504.866 21.08 503.466 21.64L501.786 28.64C501.553 28.6867 501.156 28.71 500.596 28.71L497.726 28.5C496.98 26.4933 496.583 23.7167 496.536 20.17C497.423 19.7033 499.453 19.0033 502.626 18.07C505.8 17.09 507.83 16.6 508.716 16.6C513.476 16.6 516.836 17.65 518.796 19.75C520.756 21.85 521.736 25.3033 521.736 30.11ZM506.476 49.15C507.83 49.15 510.956 47.6333 515.856 44.6L515.506 35.85C512.333 36.13 509.673 36.3867 507.526 36.62C505.38 36.8533 503.653 37.4833 502.346 38.51C501.04 39.49 500.386 41.0533 500.386 43.2C500.386 47.1667 502.416 49.15 506.476 49.15ZM549.391 48.38C550.744 48.38 552.261 48.1 553.941 47.54C555.621 46.9333 556.997 46.21 558.071 45.37C557.884 35.43 557.721 27.8933 557.581 22.76C554.687 22.76 552.541 22.48 551.141 21.92L551.421 18.28C555.387 17.58 558.491 17.23 560.731 17.23C563.017 17.23 564.464 17.2767 565.071 17.37C565.071 18.21 564.931 19.33 564.651 20.73C564.417 22.13 564.254 22.9 564.161 23.04L563.321 48.03C565.794 48.17 567.801 48.45 569.341 48.87L569.201 52.44C567.147 53.0933 565.164 53.42 563.251 53.42C561.337 53.42 560.171 53.3967 559.751 53.35C558.864 51.5767 558.351 49.9433 558.211 48.45C555.924 50.1767 553.801 51.5067 551.841 52.44C549.927 53.3733 548.667 53.84 548.061 53.84C543.954 53.84 540.967 52.7433 539.101 50.55C537.281 48.31 536.371 45.0433 536.371 40.75C536.371 40.7033 536.581 34.73 537.001 22.83C534.294 22.83 531.797 22.5267 529.511 21.92L529.791 18.28C533.757 17.58 536.837 17.23 539.031 17.23C541.224 17.23 542.624 17.2767 543.231 17.37C543.231 18.49 543.091 19.7267 542.811 21.08C542.531 22.4333 542.367 23.0867 542.321 23.04L542.391 38.16C542.391 41.7067 542.834 44.2967 543.721 45.93C544.607 47.5633 546.497 48.38 549.391 48.38ZM578.141 48.66L577.581 22.27H572.191L571.981 19.82C572.448 19.4933 573.801 18.8867 576.041 18L581.781 9.04C582.715 9.13333 583.438 9.36666 583.951 9.74L583.881 17.44C587.381 17.44 590.251 17.6733 592.491 18.14C592.491 19.4 592.095 20.7767 591.301 22.27H583.741C583.648 27.87 583.555 36.3633 583.461 47.75C586.075 47.89 588.688 48.3567 591.301 49.15L591.231 51.6C590.578 52.02 588.898 52.51 586.191 53.07C583.531 53.63 581.338 53.91 579.611 53.91C579.378 53.5367 579.075 52.7433 578.701 51.53C578.328 50.27 578.141 49.3133 578.141 48.66ZM604.577 66.02C606.351 66.02 608.077 64.3167 609.757 60.91C611.484 57.5033 612.464 54.8667 612.697 53H611.017L599.957 22.2L594.077 21.64C594.077 20.3333 594.474 18.9333 595.267 17.44H611.367L611.577 19.89C610.084 20.5433 608.427 21.0567 606.607 21.43L612.697 40.54L614.307 46.7H615.007L623.407 21.43L617.527 19.89L617.737 17.44H633.487C634.281 18.9333 634.677 20.3333 634.677 21.64C632.764 21.8733 630.851 22.0367 628.937 22.13C627.724 25.6767 625.904 30.9733 623.477 38.02C621.097 45.0667 619.207 50.5267 617.807 54.4C616.454 58.2733 615.101 61.4233 613.747 63.85C612.394 66.2767 611.041 67.8867 609.687 68.68C608.381 69.52 606.911 69.94 605.277 69.94C602.384 69.94 599.677 69.38 597.157 68.26L595.897 67.63C596.224 62.31 596.434 59.3933 596.527 58.88C596.901 58.74 598.254 58.67 600.587 58.67L602.967 65.81C603.387 65.95 603.924 66.02 604.577 66.02ZM18.02 125.31C24.9733 125.31 28.45 122.487 28.45 116.84C28.45 114.087 26.7467 111.753 23.34 109.84C21.8 108.953 20.0967 108.113 18.23 107.32C16.41 106.527 14.5667 105.663 12.7 104.73C10.8333 103.797 9.13 102.793 7.59 101.72C6.09667 100.647 4.86 99.2933 3.88 97.66C2.94667 96.0267 2.48 94.1833 2.48 92.13C2.48 88.77 3.83333 85.9233 6.54 83.59C9.29333 81.21 13.05 80.02 17.81 80.02C22.57 80.02 27.5867 81.4667 32.86 84.36C32.86 87.02 32.5333 90.3567 31.88 94.37C30.8533 94.51 29.5 94.58 27.82 94.58L25.72 86.46C25.16 86.18 24.04 85.9 22.36 85.62C20.7267 85.34 19.28 85.2 18.02 85.2C15.3133 85.2 13.2133 85.7833 11.72 86.95C10.2267 88.07 9.48 89.6567 9.48 91.71C9.48 93.7167 10.3433 95.5367 12.07 97.17C13.8433 98.7567 15.9667 100.133 18.44 101.3C20.96 102.42 23.4567 103.587 25.93 104.8C28.45 106.013 30.5733 107.6 32.3 109.56C34.0733 111.473 34.96 113.713 34.96 116.28C34.96 120.947 33.3967 124.563 30.27 127.13C27.1433 129.65 23.06 130.91 18.02 130.91C15.2667 130.91 12.28 130.49 9.06 129.65C5.88667 128.763 3.25 127.643 1.15 126.29C1.24333 123.163 1.59333 119.547 2.2 115.44C3.22667 115.3 4.58 115.23 6.26 115.23L7.73 123.63C8.75667 124.05 10.2967 124.447 12.35 124.82C14.45 125.147 16.34 125.31 18.02 125.31ZM58.427 126.08C60.4803 126.08 63.7003 125.1 68.087 123.14C68.9736 124.353 69.4403 125.427 69.487 126.36C67.107 127.76 64.7736 128.857 62.487 129.65C60.2003 130.443 58.567 130.84 57.587 130.84C52.1736 130.84 48.0436 129.23 45.197 126.01C42.3503 122.743 40.927 118.193 40.927 112.36C40.927 106.527 42.3036 101.953 45.057 98.64C47.857 95.28 52.0336 93.6 57.587 93.6C61.8803 93.6 65.147 95.14 67.387 98.22C69.6736 101.3 70.817 105.43 70.817 110.61C70.4436 111.263 70.1403 111.707 69.907 111.94L47.367 111.59C47.4136 116.303 48.2303 119.897 49.817 122.37C51.4503 124.843 54.3203 126.08 58.427 126.08ZM64.447 107.6C64.447 104.52 63.887 102.14 62.767 100.46C61.647 98.7333 59.7803 97.87 57.167 97.87C54.5536 97.87 52.2203 98.36 50.167 99.34C48.767 102.14 47.8803 105.01 47.507 107.95C51.1936 107.903 56.8403 107.787 64.447 107.6ZM97.9573 99.48C97.7239 99.2467 97.2106 99.13 96.4173 99.13C95.6239 99.13 94.4339 99.41 92.8473 99.97C91.3073 100.53 89.9073 101.183 88.6473 101.93C88.3673 112.29 88.1806 120.06 88.0873 125.24L93.9673 125.8C93.9673 127.107 93.5706 128.507 92.7773 130H76.6773L76.4673 127.55C78.6139 126.803 80.7139 126.243 82.7673 125.87C82.4873 114.017 82.2539 105.243 82.0673 99.55C79.5006 99.41 77.4473 99.13 75.9073 98.71L76.1873 95.07C78.6606 94.37 82.3239 94.02 87.1773 94.02C87.9239 95.1867 88.3906 96.68 88.5773 98.5C93.9439 95.2333 97.1406 93.6 98.1673 93.6C99.1939 93.6 100.384 93.81 101.737 94.23C103.091 94.6033 104.094 95.0233 104.747 95.49C104.747 100.157 104.304 103.96 103.417 106.9C102.764 107.087 101.994 107.18 101.107 107.18C100.267 107.18 99.6839 107.157 99.3573 107.11L97.9573 99.48ZM142.003 99.13L128.353 130H123.383L110.573 99.2L104.693 98.64C104.693 97.3333 105.089 95.9333 105.883 94.44H122.823L123.033 96.89C121.539 97.5433 119.883 98.0567 118.063 98.43L124.363 117.54L125.973 123.7H126.813L128.563 117.47L135.073 98.43L129.193 96.89L129.403 94.44H146.553C147.346 95.9333 147.743 97.3333 147.743 98.64C145.829 98.8733 143.916 99.0367 142.003 99.13ZM161.802 87.79C160.588 88.07 159.398 88.21 158.232 88.21C157.112 88.21 155.992 88.14 154.872 88C154.592 86.6933 154.452 85.3867 154.452 84.08C154.452 82.7267 154.498 81.7233 154.592 81.07C155.618 80.8367 156.692 80.72 157.812 80.72C158.978 80.72 160.215 80.7667 161.522 80.86C161.802 82.0733 161.942 83.2633 161.942 84.43C161.942 85.55 161.895 86.67 161.802 87.79ZM149.062 95.14C153.028 94.44 156.108 94.09 158.302 94.09C160.495 94.09 161.895 94.1367 162.502 94.23C162.502 95.35 162.362 96.5867 162.082 97.94C161.802 99.2933 161.638 99.9467 161.592 99.9L160.962 125.24L166.842 125.8C166.842 127.107 166.445 128.507 165.652 130H149.552L149.342 127.55C151.488 126.803 153.588 126.243 155.642 125.87C155.362 114.203 155.128 105.453 154.942 99.62C152.235 99.62 150.182 99.34 148.782 98.78L149.062 95.14ZM187.395 130.84C181.795 130.84 177.618 129.277 174.865 126.15C172.112 122.977 170.735 118.473 170.735 112.64C170.735 99.9467 176.382 93.6 187.675 93.6C189.495 93.6 191.385 93.88 193.345 94.44C195.305 94.9533 196.845 95.5367 197.965 96.19C197.825 100.53 197.382 103.61 196.635 105.43C195.795 105.663 195.118 105.78 194.605 105.78H193.415C193.182 105.78 192.902 105.757 192.575 105.71L190.825 98.01C189.285 97.87 188.398 97.8 188.165 97.8C184.805 97.8 182.122 98.8267 180.115 100.88C178.155 102.933 177.175 106.387 177.175 111.24C177.175 116.093 177.922 119.78 179.415 122.3C180.955 124.82 183.895 126.08 188.235 126.08C190.288 126.08 193.508 125.1 197.895 123.14C198.782 124.353 199.248 125.427 199.295 126.36C196.915 127.76 194.582 128.857 192.295 129.65C190.008 130.443 188.375 130.84 187.395 130.84ZM221.532 126.08C223.586 126.08 226.806 125.1 231.192 123.14C232.079 124.353 232.546 125.427 232.592 126.36C230.212 127.76 227.879 128.857 225.592 129.65C223.306 130.443 221.672 130.84 220.692 130.84C215.279 130.84 211.149 129.23 208.302 126.01C205.456 122.743 204.032 118.193 204.032 112.36C204.032 106.527 205.409 101.953 208.162 98.64C210.962 95.28 215.139 93.6 220.692 93.6C224.986 93.6 228.252 95.14 230.492 98.22C232.779 101.3 233.922 105.43 233.922 110.61C233.549 111.263 233.246 111.707 233.012 111.94L210.472 111.59C210.519 116.303 211.336 119.897 212.922 122.37C214.556 124.843 217.426 126.08 221.532 126.08ZM227.552 107.6C227.552 104.52 226.992 102.14 225.872 100.46C224.752 98.7333 222.886 97.87 220.272 97.87C217.659 97.87 215.326 98.36 213.272 99.34C211.872 102.14 210.986 105.01 210.612 107.95C214.299 107.903 219.946 107.787 227.552 107.6ZM245.383 125.52C247.016 126.22 248.999 126.57 251.333 126.57C253.713 126.57 255.579 126.127 256.933 125.24C258.286 124.353 258.963 123.14 258.963 121.6C258.963 120.06 258.333 118.777 257.073 117.75C255.813 116.723 254.273 115.813 252.453 115.02C250.633 114.227 248.813 113.387 246.993 112.5C245.173 111.613 243.633 110.447 242.373 109C241.113 107.553 240.483 105.873 240.483 103.96C240.483 100.74 241.556 98.22 243.703 96.4C245.849 94.5333 248.813 93.6 252.593 93.6C256.419 93.6 260.013 94.4633 263.373 96.19C263.419 96.6567 263.443 97.9167 263.443 99.97C263.443 101.977 263.233 103.703 262.813 105.15C261.693 105.523 260.363 105.71 258.823 105.71L256.513 98.57C255.486 98.0567 254.086 97.8 252.313 97.8C250.586 97.8 249.209 98.2667 248.183 99.2C247.156 100.087 246.643 101.23 246.643 102.63C246.643 103.983 247.273 105.173 248.533 106.2C249.839 107.227 251.403 108.16 253.223 109C255.043 109.793 256.863 110.657 258.683 111.59C260.503 112.477 262.043 113.667 263.303 115.16C264.609 116.607 265.263 118.287 265.263 120.2C265.263 123.56 263.956 126.197 261.343 128.11C258.776 129.977 255.603 130.91 251.823 130.91C249.769 130.91 247.576 130.583 245.243 129.93C242.909 129.23 240.949 128.343 239.363 127.27C239.363 124.143 239.643 121.367 240.203 118.94C241.276 118.753 242.723 118.66 244.543 118.66L245.383 125.52ZM317.547 107.11L317.197 125.17C319.203 125.31 321.21 125.637 323.217 126.15L323.077 128.6C322.33 128.973 320.977 129.393 319.017 129.86C317.103 130.28 315.213 130.49 313.347 130.49C312.507 128.81 312.04 127.2 311.947 125.66C306.627 129.16 302.893 130.91 300.747 130.91C297.433 130.91 294.773 130.023 292.767 128.25C290.76 126.477 289.757 124.003 289.757 120.83C289.757 113.503 294.237 109.723 303.197 109.49C308.423 109.35 311.06 109.28 311.107 109.28L311.037 106.9C310.943 103.68 310.337 101.37 309.217 99.97C308.097 98.5233 306.09 97.8 303.197 97.8C301.983 97.8 300.677 98.08 299.277 98.64L297.597 105.64C297.363 105.687 296.967 105.71 296.407 105.71L293.537 105.5C292.79 103.493 292.393 100.717 292.347 97.17C293.233 96.7033 295.263 96.0033 298.437 95.07C301.61 94.09 303.64 93.6 304.527 93.6C309.287 93.6 312.647 94.65 314.607 96.75C316.567 98.85 317.547 102.303 317.547 107.11ZM302.287 126.15C303.64 126.15 306.767 124.633 311.667 121.6L311.317 112.85C308.143 113.13 305.483 113.387 303.337 113.62C301.19 113.853 299.463 114.483 298.157 115.51C296.85 116.49 296.197 118.053 296.197 120.2C296.197 124.167 298.227 126.15 302.287 126.15ZM348.981 93.6C353.461 93.6 356.704 94.72 358.711 96.96C360.718 99.1533 361.721 102.513 361.721 107.04C361.721 108.347 361.534 114.413 361.161 125.24L367.041 125.8C367.041 127.107 366.644 128.507 365.851 130H349.751L349.541 127.55C351.688 126.803 353.788 126.243 355.841 125.87C355.561 113.643 355.304 106.853 355.071 105.5C354.884 104.1 354.558 102.887 354.091 101.86C353.624 100.833 352.924 100.11 351.991 99.69C351.058 99.27 349.821 99.06 348.281 99.06C345.201 99.06 342.214 99.8067 339.321 101.3C339.041 111.94 338.854 119.92 338.761 125.24L344.641 125.8C344.641 127.107 344.244 128.507 343.451 130H327.351L327.141 127.55C329.288 126.803 331.388 126.243 333.441 125.87C333.161 114.017 332.928 105.243 332.741 99.55C330.174 99.41 328.121 99.13 326.581 98.71L326.861 95.07C329.381 94.37 333.044 94.02 337.851 94.02C338.411 94.86 338.831 96.0733 339.111 97.66C341.118 96.5867 343.124 95.6533 345.131 94.86C347.184 94.02 348.468 93.6 348.981 93.6ZM394.356 97.59L394.146 83.59C391.579 83.45 389.526 83.17 387.986 82.75L388.266 79.11C390.646 78.41 394.099 78.06 398.626 78.06C400.073 78.06 401.099 78.1067 401.706 78.2C401.706 79.04 401.566 80.16 401.286 81.56C401.053 82.9133 400.889 83.66 400.796 83.8L400.166 125.17C402.079 125.263 404.109 125.59 406.256 126.15L406.116 128.6C402.896 130.093 400.049 130.84 397.576 130.84C397.063 130.84 396.666 130.817 396.386 130.77C396.013 130.07 395.546 128.46 394.986 125.94C389.619 128.973 385.863 130.607 383.716 130.84C379.236 130.84 375.876 129.137 373.636 125.73C371.396 122.323 370.276 117.96 370.276 112.64C370.276 107.273 371.396 102.77 373.636 99.13C375.923 95.4433 379.283 93.6 383.716 93.6C387.169 93.6 390.716 94.93 394.356 97.59ZM384.906 98.36C379.446 98.36 376.716 102.84 376.716 111.8C376.716 115.3 377.276 118.333 378.396 120.9C378.956 122.3 379.773 123.42 380.846 124.26C381.966 125.1 383.249 125.52 384.696 125.52C386.143 125.52 387.823 125.193 389.736 124.54C391.696 123.887 393.376 123.14 394.776 122.3L394.356 102.35C393.096 101.277 391.556 100.343 389.736 99.55C387.916 98.7567 386.306 98.36 384.906 98.36ZM478.79 85.83L486.14 125.24L492.51 125.87C492.51 127.13 492.113 128.507 491.32 130H475.22L475.01 127.55C476.41 126.943 478.136 126.453 480.19 126.08L472.7 86.81L463.46 126.64H456.53L443.79 86.67L438.12 125.24L444.07 125.8C444.07 127.107 443.673 128.507 442.88 130H426.78L426.57 127.55C428.623 126.803 430.676 126.243 432.73 125.87L438.89 85.27C436.043 84.85 433.78 84.36 432.1 83.8L432.38 81H448.69L459.82 119.36H460.1L468.78 81H484.39C485.183 82.4933 485.58 83.94 485.58 85.34C482.546 85.6667 480.283 85.83 478.79 85.83ZM524.197 107.11L523.847 125.17C525.854 125.31 527.86 125.637 529.867 126.15L529.727 128.6C528.98 128.973 527.627 129.393 525.667 129.86C523.754 130.28 521.864 130.49 519.997 130.49C519.157 128.81 518.69 127.2 518.597 125.66C513.277 129.16 509.544 130.91 507.397 130.91C504.084 130.91 501.424 130.023 499.417 128.25C497.41 126.477 496.407 124.003 496.407 120.83C496.407 113.503 500.887 109.723 509.847 109.49C515.074 109.35 517.71 109.28 517.757 109.28L517.687 106.9C517.594 103.68 516.987 101.37 515.867 99.97C514.747 98.5233 512.74 97.8 509.847 97.8C508.634 97.8 507.327 98.08 505.927 98.64L504.247 105.64C504.014 105.687 503.617 105.71 503.057 105.71L500.187 105.5C499.44 103.493 499.044 100.717 498.997 97.17C499.884 96.7033 501.914 96.0033 505.087 95.07C508.26 94.09 510.29 93.6 511.177 93.6C515.937 93.6 519.297 94.65 521.257 96.75C523.217 98.85 524.197 102.303 524.197 107.11ZM508.937 126.15C510.29 126.15 513.417 124.633 518.317 121.6L517.967 112.85C514.794 113.13 512.134 113.387 509.987 113.62C507.84 113.853 506.114 114.483 504.807 115.51C503.5 116.49 502.847 118.053 502.847 120.2C502.847 124.167 504.877 126.15 508.937 126.15ZM539.601 125.52C541.235 126.22 543.218 126.57 545.551 126.57C547.931 126.57 549.798 126.127 551.151 125.24C552.505 124.353 553.181 123.14 553.181 121.6C553.181 120.06 552.551 118.777 551.291 117.75C550.031 116.723 548.491 115.813 546.671 115.02C544.851 114.227 543.031 113.387 541.211 112.5C539.391 111.613 537.851 110.447 536.591 109C535.331 107.553 534.701 105.873 534.701 103.96C534.701 100.74 535.775 98.22 537.921 96.4C540.068 94.5333 543.031 93.6 546.811 93.6C550.638 93.6 554.231 94.4633 557.591 96.19C557.638 96.6567 557.661 97.9167 557.661 99.97C557.661 101.977 557.451 103.703 557.031 105.15C555.911 105.523 554.581 105.71 553.041 105.71L550.731 98.57C549.705 98.0567 548.305 97.8 546.531 97.8C544.805 97.8 543.428 98.2667 542.401 99.2C541.375 100.087 540.861 101.23 540.861 102.63C540.861 103.983 541.491 105.173 542.751 106.2C544.058 107.227 545.621 108.16 547.441 109C549.261 109.793 551.081 110.657 552.901 111.59C554.721 112.477 556.261 113.667 557.521 115.16C558.828 116.607 559.481 118.287 559.481 120.2C559.481 123.56 558.175 126.197 555.561 128.11C552.995 129.977 549.821 130.91 546.041 130.91C543.988 130.91 541.795 130.583 539.461 129.93C537.128 129.23 535.168 128.343 533.581 127.27C533.581 124.143 533.861 121.367 534.421 118.94C535.495 118.753 536.941 118.66 538.761 118.66L539.601 125.52ZM571.252 125.52C572.885 126.22 574.869 126.57 577.202 126.57C579.582 126.57 581.449 126.127 582.802 125.24C584.155 124.353 584.832 123.14 584.832 121.6C584.832 120.06 584.202 118.777 582.942 117.75C581.682 116.723 580.142 115.813 578.322 115.02C576.502 114.227 574.682 113.387 572.862 112.5C571.042 111.613 569.502 110.447 568.242 109C566.982 107.553 566.352 105.873 566.352 103.96C566.352 100.74 567.425 98.22 569.572 96.4C571.719 94.5333 574.682 93.6 578.462 93.6C582.289 93.6 585.882 94.4633 589.242 96.19C589.289 96.6567 589.312 97.9167 589.312 99.97C589.312 101.977 589.102 103.703 588.682 105.15C587.562 105.523 586.232 105.71 584.692 105.71L582.382 98.57C581.355 98.0567 579.955 97.8 578.182 97.8C576.455 97.8 575.079 98.2667 574.052 99.2C573.025 100.087 572.512 101.23 572.512 102.63C572.512 103.983 573.142 105.173 574.402 106.2C575.709 107.227 577.272 108.16 579.092 109C580.912 109.793 582.732 110.657 584.552 111.59C586.372 112.477 587.912 113.667 589.172 115.16C590.479 116.607 591.132 118.287 591.132 120.2C591.132 123.56 589.825 126.197 587.212 128.11C584.645 129.977 581.472 130.91 577.692 130.91C575.639 130.91 573.445 130.583 571.112 129.93C568.779 129.23 566.819 128.343 565.232 127.27C565.232 124.143 565.512 121.367 566.072 118.94C567.145 118.753 568.592 118.66 570.412 118.66L571.252 125.52ZM625.232 107.11L624.882 125.17C626.889 125.31 628.896 125.637 630.902 126.15L630.762 128.6C630.016 128.973 628.662 129.393 626.702 129.86C624.789 130.28 622.899 130.49 621.032 130.49C620.192 128.81 619.726 127.2 619.632 125.66C614.312 129.16 610.579 130.91 608.432 130.91C605.119 130.91 602.459 130.023 600.452 128.25C598.446 126.477 597.442 124.003 597.442 120.83C597.442 113.503 601.922 109.723 610.882 109.49C616.109 109.35 618.746 109.28 618.792 109.28L618.722 106.9C618.629 103.68 618.022 101.37 616.902 99.97C615.782 98.5233 613.776 97.8 610.882 97.8C609.669 97.8 608.362 98.08 606.962 98.64L605.282 105.64C605.049 105.687 604.652 105.71 604.092 105.71L601.222 105.5C600.476 103.493 600.079 100.717 600.032 97.17C600.919 96.7033 602.949 96.0033 606.122 95.07C609.296 94.09 611.326 93.6 612.212 93.6C616.972 93.6 620.332 94.65 622.292 96.75C624.252 98.85 625.232 102.303 625.232 107.11ZM609.972 126.15C611.326 126.15 614.452 124.633 619.352 121.6L619.002 112.85C615.829 113.13 613.169 113.387 611.022 113.62C608.876 113.853 607.149 114.483 605.842 115.51C604.536 116.49 603.882 118.053 603.882 120.2C603.882 124.167 605.912 126.15 609.972 126.15ZM653.307 125.73L659.537 125.59C665.977 125.59 669.197 128.25 669.197 133.57C669.197 136.043 668.123 138.33 665.977 140.43C663.877 142.577 661.357 144.187 658.417 145.26C655.477 146.333 652.723 146.87 650.157 146.87C647.637 146.87 645.28 146.497 643.087 145.75C640.893 145.05 639.027 143.883 637.487 142.25C635.947 140.617 635.177 138.727 635.177 136.58C635.177 136.067 635.993 134.713 637.627 132.52C639.307 130.373 640.403 129.113 640.917 128.74C640.497 128.46 639.68 127.667 638.467 126.36C637.253 125.007 636.577 124.073 636.437 123.56C637.603 121.413 639.447 119.313 641.967 117.26C638.233 115.02 636.367 111.333 636.367 106.2C636.367 102.093 637.673 98.9667 640.287 96.82C642.9 94.6733 646.167 93.6 650.087 93.6C654.007 93.6 657.04 94.23 659.187 95.49C662.92 94.7433 666.583 94.37 670.177 94.37C671.063 94.37 671.507 94.9067 671.507 95.98C671.507 97.8467 671.157 99.13 670.457 99.83L662.407 98.5C664.087 100.647 664.927 103.213 664.927 106.2C664.927 110.867 663.55 114.227 660.797 116.28C658.043 118.287 654.66 119.29 650.647 119.29C649.387 119.29 647.893 119.127 646.167 118.8C645.467 120.247 644.58 121.81 643.507 123.49C644.347 124.983 647.613 125.73 653.307 125.73ZM662.197 138.61C662.663 137.303 662.897 135.95 662.897 134.55C662.897 133.197 662.36 132.1 661.287 131.26C660.213 130.42 658.837 130 657.157 130C650.483 130 646.4 129.93 644.907 129.79C643.647 131.797 642.76 133.477 642.247 134.83C641.78 136.23 641.547 137.023 641.547 137.21C641.547 139.03 642.41 140.383 644.137 141.27C645.863 142.157 647.847 142.6 650.087 142.6C652.373 142.6 654.66 142.227 656.947 141.48C659.28 140.733 661.03 139.777 662.197 138.61ZM658.627 106.48C658.627 100.693 655.967 97.8 650.647 97.8C645.327 97.8 642.667 100.6 642.667 106.2C642.667 109.047 643.367 111.24 644.767 112.78C646.167 114.32 648.197 115.09 650.857 115.09C656.037 115.09 658.627 112.22 658.627 106.48ZM693.075 126.08C695.129 126.08 698.349 125.1 702.735 123.14C703.622 124.353 704.089 125.427 704.135 126.36C701.755 127.76 699.422 128.857 697.135 129.65C694.849 130.443 693.215 130.84 692.235 130.84C686.822 130.84 682.692 129.23 679.845 126.01C676.999 122.743 675.575 118.193 675.575 112.36C675.575 106.527 676.952 101.953 679.705 98.64C682.505 95.28 686.682 93.6 692.235 93.6C696.529 93.6 699.795 95.14 702.035 98.22C704.322 101.3 705.465 105.43 705.465 110.61C705.092 111.263 704.789 111.707 704.555 111.94L682.015 111.59C682.062 116.303 682.879 119.897 684.465 122.37C686.099 124.843 688.969 126.08 693.075 126.08ZM699.095 107.6C699.095 104.52 698.535 102.14 697.415 100.46C696.295 98.7333 694.429 97.87 691.815 97.87C689.202 97.87 686.869 98.36 684.815 99.34C683.415 102.14 682.529 105.01 682.155 107.95C685.842 107.903 691.489 107.787 699.095 107.6ZM719.516 129.79C718.302 130.07 717.112 130.21 715.946 130.21C714.826 130.21 713.706 130.14 712.586 130C712.306 128.693 712.166 127.387 712.166 126.08C712.166 124.727 712.212 123.723 712.306 123.07C713.332 122.837 714.406 122.72 715.526 122.72C716.692 122.72 717.929 122.767 719.236 122.86C719.516 124.073 719.656 125.263 719.656 126.43C719.656 127.55 719.609 128.67 719.516 129.79Z" fill="white"/>
</svg>
