<svg width="114" height="114" viewBox="0 0 114 114" fill="none" xmlns="http://www.w3.org/2000/svg">
<g clip-path="url(#clip0_99_41)">
<path d="M108.415 51.7386L63.0946 54.4726L97.0729 24.3577C97.2244 24.2269 97.3828 24.0616 97.5205 23.9101C99.4487 21.7339 99.249 18.4008 97.0729 16.4726C94.8967 14.5444 91.5636 14.7441 89.6354 16.9202L59.5274 50.9054L62.2545 5.58496C62.2682 5.38525 62.2682 5.1511 62.2545 4.95139C62.0823 2.04527 59.5825 -0.165316 56.6764 0.00684733C53.7702 0.179011 51.5596 2.67883 51.7318 5.58496L54.4658 50.9054L24.3646 16.9271C24.2338 16.7756 24.0685 16.6172 23.917 16.4795C21.7409 14.5512 18.4078 14.751 16.4795 16.9271C14.5513 19.1033 14.751 22.4364 16.9272 24.3646L50.9054 54.4726L5.58502 51.7386C5.38531 51.7249 5.15116 51.7249 4.95145 51.7386C2.04533 51.9108 -0.165255 54.4106 0.00690837 57.3167C0.179072 60.2229 2.67889 62.4335 5.58502 62.2613L50.9054 59.5273L16.9272 89.6422C16.7826 89.7731 16.6173 89.9383 16.4795 90.0899C14.5513 92.266 14.751 95.5991 16.9272 97.5273C19.1033 99.4556 22.4364 99.2559 24.3646 97.0797L54.4727 63.0946L51.7387 108.415C51.7318 108.615 51.7249 108.849 51.7387 109.049C51.9109 111.955 54.4107 114.165 57.3168 113.993C60.2229 113.821 62.4335 111.321 62.2613 108.415L59.5274 63.0946L89.6423 97.0728C89.7731 97.2243 89.9384 97.3827 90.0899 97.5204C92.2661 99.4487 95.5991 99.249 97.5274 97.0728C99.4556 94.8967 99.2559 91.5636 97.0798 89.6353L63.0946 59.5273L108.415 62.2613C108.615 62.2751 108.849 62.2751 109.049 62.2613C111.955 62.0891 114.165 59.5893 113.993 56.6832C113.814 53.7771 111.321 51.5665 108.415 51.7386Z" fill="#ECD8BD"/>
</g>
<defs>
<clipPath id="clip0_99_41">
<rect width="114" height="114" fill="white"/>
</clipPath>
</defs>
</svg>
